# File created by Blade
# Date/Time:  Wed Sep 24 20:21:23 2014
# Frame Rate: 120.000 fps
#------------------------------------------------------
:FULLY-SPECIFIED
:DEGREES
1219
root -2.587817 32.706440 -5.890698 10.890749 -3.113329 -1.320973
Spine -3.269124 5.799075 -3.460612
Head -7.151191 -16.639647 14.703708
LeftShoulder -4.467083 16.145637 12.461538
LeftArm 33.893889 39.633510 -66.882420
LeftForeArm -3.283230 -0.000000 23.790217
LeftHand -26.178597 -0.000000 1.753620
LeftHandThumb1 -26.253704 0.000000 33.147579
RightShoulder -15.472797 21.798415 -30.537539
RightArm 20.853403 -21.850520 87.504810
RightForeArm -4.120630 -0.000000 128.651790
RightHand -1.393693 -0.000000 -2.533034
RightHandThumb1 -24.326973 -0.000000 -32.862282
LeftUpLeg -8.504563 15.333026 -0.947763
LeftLeg -0.601518 -0.000000 0.000000
LeftFoot -12.477026 10.226765 -15.897677
LeftToeBase 8.087231 -0.000000 -0.000000
RightUpLeg -13.076798 -3.143900 -1.223507
RightLeg 7.418174 -0.000000 -0.000000
RightFoot -9.994788 -3.707521 -6.161180
RightToeBase -1.222441 -0.000000 0.000000
1220
root -2.584947 32.706433 -5.878188 10.872386 -3.051249 -1.314302
Spine -3.328170 5.954829 -3.519622
Head -6.789841 -17.185988 14.982468
LeftShoulder -4.413971 15.992145 12.446252
LeftArm 33.602703 39.485442 -67.217907
LeftForeArm -3.066203 -0.000000 23.889735
LeftHand -26.168755 -0.000000 1.555787
LeftHandThumb1 -26.253704 0.000000 33.147579
RightShoulder -15.530020 21.944266 -30.729500
RightArm 21.086548 -21.463208 87.880216
RightForeArm -4.351360 -0.000000 129.188926
RightHand -1.356347 0.000000 -2.157206
RightHandThumb1 -24.326973 -0.000000 -32.862282
LeftUpLeg -8.478281 15.261236 -0.929332
LeftLeg -0.551556 -0.000000 0.000000
LeftFoot -12.470422 10.171963 -15.833186
LeftToeBase 8.005887 -0.000000 -0.000000
RightUpLeg -13.029810 -3.168513 -1.234949
RightLeg 7.420535 -0.000000 -0.000000
RightFoot -10.014880 -3.730553 -6.142812
RightToeBase -1.222356 -0.000000 0.000000
1221
root -2.584168 32.706454 -5.864443 10.837754 -2.976331 -1.319556
Spine -3.358811 6.022131 -3.558775
Head -6.434461 -17.578661 15.250239
LeftShoulder -4.466863 15.944371 12.376113
LeftArm 33.508910 39.406143 -67.337262
LeftForeArm -3.045068 0.000000 24.001658
LeftHand -26.154057 -0.000000 1.760522
LeftHandThumb1 -26.253704 0.000000 33.147579
RightShoulder -15.554716 22.161117 -30.907068
RightArm 21.245194 -21.294687 88.046460
RightForeArm -4.691256 -0.000000 129.670228
RightHand -1.159741 -0.000000 -2.474025
RightHandThumb1 -24.326973 -0.000000 -32.862282
LeftUpLeg -8.429575 15.191060 -0.887366
LeftLeg -0.524376 -0.000000 0.000000
LeftFoot -12.458665 10.139252 -15.735994
LeftToeBase 7.943572 -0.000000 -0.000000
RightUpLeg -12.953416 -3.169678 -1.235100
RightLeg 7.406732 -0.000000 -0.000000
RightFoot -10.024511 -3.780272 -6.107921
RightToeBase -1.253608 -0.000000 0.000000
1222
root -2.581947 32.705898 -5.850796 10.808495 -2.879743 -1.331998
Spine -3.385381 6.067240 -3.571355
Head -6.133825 -17.957200 15.508383
LeftShoulder -4.493718 15.909035 12.304010
LeftArm 33.365447 39.262982 -67.528075
LeftForeArm -2.997506 -0.000000 24.133577
LeftHand -26.162111 0.000000 1.875809
LeftHandThumb1 -26.253704 0.000000 33.147579
RightShoulder -15.563716 22.275501 -31.031401
RightArm 21.482255 -21.134461 88.154103
RightForeArm -5.029173 -0.000000 130.172642
RightHand -1.181640 0.000000 -2.737883
RightHandThumb1 -24.326973 -0.000000 -32.862282
LeftUpLeg -8.395318 15.111232 -0.864730
LeftLeg -0.505250 -0.000000 0.000000
LeftFoot -12.516768 10.184173 -15.770389
LeftToeBase 7.965507 -0.000000 -0.000000
RightUpLeg -12.885106 -3.186647 -1.228523
RightLeg 7.405377 -0.000000 -0.000000
RightFoot -10.042837 -3.839189 -6.081270
RightToeBase -1.261588 -0.000000 0.000000
1223
root -2.579079 32.705685 -5.834173 10.781878 -2.775224 -1.339110
Spine -3.429150 6.142479 -3.595357
Head -5.857998 -18.314609 15.774260
LeftShoulder -4.495740 15.900032 12.227955
LeftArm 33.193491 39.071906 -67.749738
LeftForeArm -2.840944 -0.000000 24.299820
LeftHand -26.160282 -0.000000 1.897540
LeftHandThumb1 -26.253704 0.000000 33.147579
RightShoulder -15.606839 22.142779 -31.067674
RightArm 21.916179 -21.015897 88.170753
RightForeArm -5.275122 0.000000 130.612733
RightHand -0.968396 -0.000000 -3.078272
RightHandThumb1 -24.326973 -0.000000 -32.862282
LeftUpLeg -8.356157 15.046411 -0.839790
LeftLeg -0.485548 -0.000000 0.000000
LeftFoot -12.548615 10.139247 -15.788873
LeftToeBase 8.000161 -0.000000 -0.000000
RightUpLeg -12.805174 -3.205869 -1.226218
RightLeg 7.386487 -0.000000 -0.000000
RightFoot -10.055773 -3.907105 -6.006831
RightToeBase -1.225670 -0.000000 0.000000
1224
root -2.579645 32.706321 -5.817553 10.745001 -2.694189 -1.347328
Spine -3.454948 6.211045 -3.628153
Head -5.619924 -18.655582 16.047952
LeftShoulder -4.509606 15.927276 12.155967
LeftArm 33.083902 38.893074 -67.903918
LeftForeArm -2.744000 -0.000000 24.452396
LeftHand -26.111193 -0.000000 1.846635
LeftHandThumb1 -26.253704 0.000000 33.147579
RightShoulder -15.619652 22.101394 -31.105638
RightArm 22.181636 -20.802059 88.340732
RightForeArm -5.537077 -0.000000 131.073746
RightHand -0.928564 -0.000000 -2.977593
RightHandThumb1 -24.326973 -0.000000 -32.862282
LeftUpLeg -8.299470 15.014915 -0.791557
LeftLeg -0.462943 -0.000000 0.000000
LeftFoot -12.491935 10.036808 -15.627933
LeftToeBase 7.853402 -0.000000 -0.000000
RightUpLeg -12.747270 -3.265207 -1.209280
RightLeg 7.424918 -0.000000 -0.000000
RightFoot -10.087676 -3.936466 -6.021874
RightToeBase -1.270765 -0.000000 0.000000
1225
root -2.576209 32.705458 -5.802311 10.720376 -2.625107 -1.331581
Spine -3.475946 6.312920 -3.685794
Head -5.464162 -18.960460 16.320357
LeftShoulder -4.512869 15.965813 12.101285
LeftArm 32.994615 38.694963 -68.079121
LeftForeArm -2.630598 -0.000000 24.599049
LeftHand -26.106251 -0.000000 1.810993
LeftHandThumb1 -26.253704 0.000000 33.147579
RightShoulder -15.704763 22.241540 -31.230489
RightArm 22.180190 -20.644905 88.567852
RightForeArm -5.908200 -0.000000 131.514415
RightHand -0.860607 0.000000 -2.939027
RightHandThumb1 -24.326973 -0.000000 -32.862282
LeftUpLeg -8.271808 15.025286 -0.817904
LeftLeg -0.444582 -0.000000 0.000000
LeftFoot -12.567036 10.006269 -15.771792
LeftToeBase 7.990971 -0.000000 -0.000000
RightUpLeg -12.712717 -3.252107 -1.232197
RightLeg 7.482755 -0.000000 -0.000000
RightFoot -10.145935 -4.037013 -6.027220
RightToeBase -1.197234 -0.000000 0.000000
1226
root -2.574453 32.704645 -5.785697 10.690375 -2.541603 -1.326480
Spine -3.495340 6.404058 -3.745334
Head -5.328129 -19.213072 16.623429
LeftShoulder -4.490785 16.009171 12.091224
LeftArm 32.891646 38.492494 -68.301844
LeftForeArm -2.453757 0.000000 24.717764
LeftHand -26.053615 -0.000000 1.477349
LeftHandThumb1 -26.253704 0.000000 33.147579
RightShoulder -15.825361 22.187968 -31.267285
RightArm 22.381714 -20.562192 88.703147
RightForeArm -6.280513 -0.000000 131.928167
RightHand -0.932755 -0.000000 -3.113896
RightHandThumb1 -24.326973 -0.000000 -32.862282
LeftUpLeg -8.226925 15.014746 -0.801667
LeftLeg -0.427013 -0.000000 0.000000
LeftFoot -12.546252 9.904290 -15.674079
LeftToeBase 7.950053 -0.000000 -0.000000
RightUpLeg -12.653495 -3.255821 -1.237226
RightLeg 7.500326 -0.000000 -0.000000
RightFoot -10.117313 -4.179648 -6.139931
RightToeBase -1.429109 -0.000000 0.000000
1227
root -2.571902 32.703787 -5.768740 10.661056 -2.404523 -1.330820
Spine -3.520643 6.393948 -3.737447
Head -5.144698 -19.418095 16.791737
LeftShoulder -4.473961 16.039211 12.043021
LeftArm 32.719999 38.289654 -68.559381
LeftForeArm -2.360657 -0.000000 24.833701
LeftHand -26.009855 0.000000 1.402248
LeftHandThumb1 -26.253704 0.000000 33.147579
RightShoulder -15.859123 22.187484 -31.300550
RightArm 22.501580 -20.514375 88.848703
RightForeArm -6.864452 -0.000000 132.313866
RightHand -1.054929 -0.000000 -3.395109
RightHandThumb1 -24.326973 -0.000000 -32.862282
LeftUpLeg -8.187803 14.925936 -0.774161
LeftLeg -0.401411 -0.000000 0.000000
LeftFoot -12.565520 9.847398 -15.641799
LeftToeBase 7.948297 -0.000000 -0.000000
RightUpLeg -12.588423 -3.302832 -1.233801
RightLeg 7.534403 -0.000000 -0.000000
RightFoot -10.227256 -4.211792 -5.977281
RightToeBase -1.214636 -0.000000 0.000000
1228
root -2.570803 32.702907 -5.751426 10.633164 -2.299355 -1.330576
Spine -3.548629 6.390537 -3.739636
Head -4.983549 -19.583740 16.930650
LeftShoulder -4.481840 16.076128 11.992721
LeftArm 32.596093 38.153617 -68.739582
LeftForeArm -2.346242 -0.000000 24.929460
LeftHand -25.927068 -0.000000 1.496090
LeftHandThumb1 -26.253704 0.000000 33.147579
RightShoulder -15.885612 22.211433 -31.302219
RightArm 22.617788 -20.515409 89.007083
RightForeArm -7.445407 -0.000000 132.647222
RightHand -1.191388 -0.000000 -3.492406
RightHandThumb1 -24.326973 -0.000000 -32.862282
LeftUpLeg -8.147617 14.908009 -0.759350
LeftLeg -0.387806 -0.000000 0.000000
LeftFoot -12.579336 9.769849 -15.628782
LeftToeBase 7.970589 -0.000000 -0.000000
RightUpLeg -12.520599 -3.363453 -1.225563
RightLeg 7.539505 -0.000000 -0.000000
RightFoot -10.228200 -4.286635 -6.043198
RightToeBase -1.318049 -0.000000 0.000000
